<svg id="Layer_1" data-name="Layer 1" xmlns="http://www.w3.org/2000/svg" xmlns:xlink="http://www.w3.org/1999/xlink" viewBox="0 0 359.83 113.07"><defs><style>.cls-1{fill:#fff;}.cls-2{fill:#ecfaff;}.cls-3,.cls-4{opacity:0.74;}.cls-3{fill:url(#linear-gradient);}.cls-4{fill:url(#linear-gradient-2);}</style><linearGradient id="linear-gradient" x1="12.88" y1="57.9" x2="45.35" y2="31.48" gradientUnits="userSpaceOnUse"><stop offset="0.33" stop-color="#632cbf"/><stop offset="0.86" stop-color="#ecfaff" stop-opacity="0"/></linearGradient><linearGradient id="linear-gradient-2" x1="-3.55" y1="92.45" x2="55.03" y2="84.81" gradientUnits="userSpaceOnUse"><stop offset="0.14" stop-color="#ecfaff" stop-opacity="0"/><stop offset="0.67" stop-color="#652cc1"/></linearGradient></defs><path class="cls-1" d="M87.44,20h0a17.89,17.89,0,0,0-11,3.9V20H62.33V66.7H76.47V38.29c2.93-4.25,7.19-5.6,13-4.12l.81.21,2.3-13.89-.73-.14A22.45,22.45,0,0,0,87.44,20Z"/><path class="cls-1" d="M127.44,22.76c-2.14-1.53-5.19-2.47-9.1-2.8a21.47,21.47,0,0,0-16,6,24.09,24.09,0,0,0-7.41,17.41A22.86,22.86,0,0,0,118.3,66.7a16.93,16.93,0,0,0,9.14-2.93V66.7h13.77V20.06L127.44,20ZM118.3,54.69c-6.36,0-10.8-4.63-10.8-11.27s4.5-11.36,10.71-11.36,10.9,4.78,10.9,11.36S124.56,54.69,118.3,54.69Z"/><polygon class="cls-1" points="171.28 46.81 161.16 19.96 146.6 19.96 165.47 66.7 177.35 66.7 196.12 19.96 181.58 19.96 171.28 46.81"/><polygon class="cls-1" points="243 44.65 237.19 19.87 226.62 19.87 220.36 44.31 214.02 19.87 200.47 19.87 213.01 66.7 225.48 66.7 231.67 45.93 237.94 66.7 250.41 66.7 262.86 19.87 249.4 19.87 243 44.65"/><path class="cls-1" d="M288.74,20c-13.54,0-23.37,9.83-23.37,23.37S275.2,66.7,288.74,66.7c8.13,0,14.37-2.29,19.07-7l.55-.54-8.25-8.24-.53.39a18,18,0,0,1-10.84,3.46c-3.72,0-7.7-2.1-8.55-6.14h31V43.33C311.18,29.35,302.17,20,288.74,20Zm0,11.92a9.47,9.47,0,0,1,6.67,2.57A5.64,5.64,0,0,1,297,38H280.45a5.7,5.7,0,0,1,1.62-3.57A9.47,9.47,0,0,1,288.74,31.88Z"/><rect class="cls-1" x="320.13" width="14.23" height="66.46"/><rect class="cls-1" x="345.6" width="14.23" height="66.46"/><path class="cls-2" d="M36.4,84.41a11.58,11.58,0,0,1-3.66,12.3l-.56.44-.28.21-.59.38-.31.19-.62.32-.33.16c-.21.1-.42.18-.63.27l-.38.13-.62.2-.45.12-.58.13-.59.09c-.16,0-.32.05-.48.06a10,10,0,0,1-1.1.06c-.41,0-.83,0-1.24-.07l-.18,0a8.85,8.85,0,0,1-1-.17l-.19,0c-.33-.08-.66-.17-1-.28l-.2-.07q-.47-.16-.93-.36l-.22-.11c-.29-.14-.57-.28-.84-.44l-.25-.15c-.26-.16-.52-.33-.76-.51l-.26-.19q-.35-.27-.69-.57l-.23-.21c-.23-.22-.44-.44-.65-.67a11.61,11.61,0,0,1-3-7.82,11.76,11.76,0,0,1,4.79-9.43l2.37-1.68L9.1,68.35l-.95.88A25.27,25.27,0,0,0,0,87.78a26.25,26.25,0,0,0,.33,4.09l.4,2a25,25,0,0,0,13.54,16.66,20,20,0,0,0,9.27.85,17.71,17.71,0,0,0,7.8-3c6.49-4.47,9.54-13.47,6.69-20.92A14.48,14.48,0,0,0,36.4,84.41Z"/><path class="cls-2" d="M52.18,19.8h-1.1c-2,0-3.88-.05-5.78-.08l-4.87-.07H39.1c-4.22,0-8.48-.12-12.61.76C19.73,21.84,14.18,26,12.16,32.74a17.4,17.4,0,0,0,3.65,16.54,11.63,11.63,0,1,1,6.62,5.93c4.71,3.51,9.89,6.41,14.65,9.83l1.44,1.07a25,25,0,0,0,10.21-32.9h3.45Z"/><path class="cls-1" d="M22.12,19A24.43,24.43,0,0,0,1,46.33,26.56,26.56,0,0,0,10.73,64c3.86,3,7.87,5.78,11.85,8.62s8,5.49,11.36,8.88l.1.11a17.45,17.45,0,0,1,4,5.91c2.85,7.45-.2,16.45-6.69,20.92a17.71,17.71,0,0,1-7.8,3,19.48,19.48,0,0,1-9.83-1.06A25.22,25.22,0,0,0,46,102.09a25,25,0,0,0,3.1-22.85,23,23,0,0,0-1.62-3.53C45,71.36,41.14,68,37.08,65c-6.79-4.88-14.45-8.69-20.34-14.73a17.54,17.54,0,0,1-4.58-17.57c2-6.79,7.57-10.9,14.33-12.35,4.13-.88,8.39-.76,12.61-.76,4.4,0,8.57.17,13.08.17-5-.6-10-1-15-1.14a97.5,97.5,0,0,0-14.8.32Z"/><path class="cls-3" d="M52.18,19.8h-1.1c-2,0-3.88-.05-5.78-.08l-4.87-.07H39.1c-4.22,0-8.48-.12-12.61.76C19.73,21.84,14.18,26,12.16,32.74a17.4,17.4,0,0,0,3.65,16.54,11.63,11.63,0,1,1,6.62,5.93c4.71,3.51,9.89,6.41,14.65,9.83l1.44,1.07a25,25,0,0,0,10.21-32.9h3.45Z"/><path class="cls-4" d="M36.4,84.41a11.58,11.58,0,0,1-3.66,12.3l-.56.44-.28.21-.59.38-.31.19-.62.32-.33.16c-.21.1-.42.18-.63.27l-.38.13-.62.2-.45.12-.58.13-.59.09c-.16,0-.32.05-.48.06a10,10,0,0,1-1.1.06c-.41,0-.83,0-1.24-.07l-.18,0a8.85,8.85,0,0,1-1-.17l-.19,0c-.33-.08-.66-.17-1-.28l-.2-.07q-.47-.16-.93-.36l-.22-.11c-.29-.14-.57-.28-.84-.44l-.25-.15c-.26-.16-.52-.33-.76-.51l-.26-.19q-.35-.27-.69-.57l-.23-.21c-.23-.22-.44-.44-.65-.67a11.61,11.61,0,0,1-3-7.82,11.76,11.76,0,0,1,4.79-9.43l2.37-1.68L9.1,68.35l-.95.88A25.27,25.27,0,0,0,0,87.78a26.25,26.25,0,0,0,.33,4.09l.4,2a25,25,0,0,0,13.54,16.66,20,20,0,0,0,9.27.85,17.71,17.71,0,0,0,7.8-3c6.49-4.47,9.54-13.47,6.69-20.92A14.48,14.48,0,0,0,36.4,84.41Z"/></svg>