<svg id="Layer_1" data-name="Layer 1" xmlns="http://www.w3.org/2000/svg" viewBox="0 0 359.83 113.07"><defs><style>.cls-1,.cls-2{fill:#fff;}.cls-2{opacity:0.74;}</style></defs><path class="cls-1" d="M87.61,20h0a17.89,17.89,0,0,0-11,3.9V20H62.5V66.7H76.64V38.29c2.93-4.25,7.19-5.6,13-4.12l.81.21,2.3-13.89L92,20.35A22.45,22.45,0,0,0,87.61,20Z" transform="translate(-0.17)"/><path class="cls-1" d="M127.61,22.76c-2.14-1.53-5.19-2.47-9.1-2.8a21.49,21.49,0,0,0-16,6A24.09,24.09,0,0,0,95.1,43.33,22.86,22.86,0,0,0,118.47,66.7a16.93,16.93,0,0,0,9.14-2.93V66.7h13.77V20.06L127.61,20Zm-9.14,31.93c-6.36,0-10.8-4.63-10.8-11.27s4.5-11.36,10.71-11.36,10.9,4.78,10.9,11.36S124.73,54.69,118.47,54.69Z" transform="translate(-0.17)"/><polygon class="cls-1" points="171.28 46.81 161.16 19.96 146.6 19.96 165.47 66.7 177.35 66.7 196.12 19.96 181.58 19.96 171.28 46.81"/><polygon class="cls-1" points="243 44.65 237.19 19.87 226.62 19.87 220.36 44.31 214.02 19.87 200.47 19.87 213.01 66.7 225.48 66.7 231.67 45.93 237.94 66.7 250.41 66.7 262.86 19.87 249.4 19.87 243 44.65"/><path class="cls-1" d="M288.91,20c-13.54,0-23.37,9.83-23.37,23.37s9.83,23.37,23.37,23.37c8.13,0,14.37-2.29,19.07-7l.55-.54-8.24-8.24-.54.39a18,18,0,0,1-10.84,3.46c-3.72,0-7.7-2.1-8.55-6.14h31V43.33C311.36,29.35,302.34,20,288.91,20Zm0,11.92a9.45,9.45,0,0,1,6.67,2.57A5.59,5.59,0,0,1,297.2,38H280.62a5.66,5.66,0,0,1,1.63-3.57A9.44,9.44,0,0,1,288.91,31.88Z" transform="translate(-0.17)"/><rect class="cls-1" x="320.13" width="14.23" height="66.46"/><rect class="cls-1" x="345.6" width="14.23" height="66.46"/><path class="cls-1" d="M36.57,84.41a11.6,11.6,0,0,1-3.65,12.3l-.57.44-.28.21-.59.38-.31.19-.62.32-.33.16c-.21.1-.42.18-.63.27l-.38.13-.62.2-.44.12-.59.13-.59.09c-.16,0-.31.05-.47.06a10.32,10.32,0,0,1-1.11.06c-.41,0-.83,0-1.23-.07l-.19,0a8.85,8.85,0,0,1-1-.17l-.19,0c-.33-.08-.66-.17-1-.28l-.2-.07c-.31-.11-.62-.23-.92-.36l-.23-.11c-.29-.14-.57-.28-.84-.44l-.25-.15c-.26-.16-.51-.33-.76-.51l-.25-.19c-.24-.18-.47-.37-.7-.57l-.23-.21c-.23-.22-.44-.44-.65-.67a11.61,11.61,0,0,1-3-7.82,11.76,11.76,0,0,1,4.79-9.43l2.38-1.68L9.27,68.35l-.95.88A25.27,25.27,0,0,0,.17,87.78,26.25,26.25,0,0,0,.5,91.87l.4,2a25,25,0,0,0,13.54,16.66,20,20,0,0,0,9.27.85,17.71,17.71,0,0,0,7.8-3c6.49-4.47,9.54-13.47,6.69-20.92A14.48,14.48,0,0,0,36.57,84.41Z" transform="translate(-0.17)"/><path class="cls-1" d="M52.35,19.8h-1.1c-2,0-3.88-.05-5.78-.08l-4.86-.07H39.27c-4.22,0-8.48-.12-12.61.76C19.9,21.84,14.35,26,12.33,32.74A17.4,17.4,0,0,0,16,49.28a11.63,11.63,0,1,1,6.62,5.93c4.71,3.51,9.89,6.41,14.65,9.83l1.44,1.07A25,25,0,0,0,48.9,33.21h3.45Z" transform="translate(-0.17)"/><path class="cls-1" d="M22.29,19A24.43,24.43,0,0,0,1.14,46.33,26.56,26.56,0,0,0,10.9,64c3.86,3,7.87,5.78,11.85,8.62s8,5.49,11.36,8.88l.1.11a17.45,17.45,0,0,1,4,5.91c2.85,7.45-.2,16.45-6.69,20.92a17.71,17.71,0,0,1-7.8,3,19.48,19.48,0,0,1-9.83-1.06,25.22,25.22,0,0,0,32.27-8.21,25,25,0,0,0,3.1-22.85,23,23,0,0,0-1.62-3.53C45.16,71.36,41.31,68,37.25,65c-6.79-4.88-14.44-8.69-20.33-14.73a17.54,17.54,0,0,1-4.59-17.57c2-6.79,7.57-10.9,14.33-12.35,4.13-.88,8.39-.76,12.61-.76,4.4,0,8.57.17,13.08.17-5-.6-10-1-15-1.14a97.5,97.5,0,0,0-14.8.32Z" transform="translate(-0.17)"/><path class="cls-2" d="M52.35,19.8h-1.1c-2,0-3.88-.05-5.78-.08l-4.86-.07H39.27c-4.22,0-8.48-.12-12.61.76C19.9,21.84,14.35,26,12.33,32.74A17.4,17.4,0,0,0,16,49.28a11.63,11.63,0,1,1,6.62,5.93c4.71,3.51,9.89,6.41,14.65,9.83l1.44,1.07A25,25,0,0,0,48.9,33.21h3.45Z" transform="translate(-0.17)"/><path class="cls-2" d="M36.57,84.41a11.6,11.6,0,0,1-3.65,12.3l-.57.44-.28.21-.59.38-.31.19-.62.32-.33.16c-.21.1-.42.18-.63.27l-.38.13-.62.2-.44.12-.59.13-.59.09c-.16,0-.31.05-.47.06a10.32,10.32,0,0,1-1.11.06c-.41,0-.83,0-1.23-.07l-.19,0a8.85,8.85,0,0,1-1-.17l-.19,0c-.33-.08-.66-.17-1-.28l-.2-.07c-.31-.11-.62-.23-.92-.36l-.23-.11c-.29-.14-.57-.28-.84-.44l-.25-.15c-.26-.16-.51-.33-.76-.51l-.25-.19c-.24-.18-.47-.37-.7-.57l-.23-.21c-.23-.22-.44-.44-.65-.67a11.61,11.61,0,0,1-3-7.82,11.76,11.76,0,0,1,4.79-9.43l2.38-1.68L9.27,68.35l-.95.88A25.27,25.27,0,0,0,.17,87.78,26.25,26.25,0,0,0,.5,91.87l.4,2a25,25,0,0,0,13.54,16.66,20,20,0,0,0,9.27.85,17.71,17.71,0,0,0,7.8-3c6.49-4.47,9.54-13.47,6.69-20.92A14.48,14.48,0,0,0,36.57,84.41Z" transform="translate(-0.17)"/></svg>